<svg width="266" height="52" viewBox="0 0 266 52" fill="none" xmlns="http://www.w3.org/2000/svg">
<rect x="19" width="14" height="4" rx="2" fill="#BDBDBD"/>
<rect x="19" width="14" height="4" rx="2" fill="black"/>
<rect x="6" y="8" width="40" height="4" rx="2" fill="#BDBDBD"/>
<rect x="6" y="8" width="10" height="4" rx="2" fill="black"/>
<g clip-path="url(#clip0_37733_341)">
<rect x="1.5" y="16" width="49" height="4" rx="2" fill="#BDBDBD"/>
<rect x="1.5" y="16" width="10" height="4" rx="2" fill="black"/>
</g>
<rect y="24" width="52" height="4" rx="2" fill="#BDBDBD"/>
<rect y="24" width="10" height="4" rx="2" fill="black"/>
<g clip-path="url(#clip1_37733_341)">
<rect x="1.5" y="32" width="49" height="4" rx="2" fill="#BDBDBD"/>
<rect x="1.5" y="32" width="10" height="4" rx="2" fill="black"/>
</g>
<rect x="6" y="40" width="40" height="4" rx="2" fill="#BDBDBD"/>
<rect x="6" y="40" width="10" height="4" rx="2" fill="black"/>
<rect x="19" y="48" width="14" height="4" rx="2" fill="#BDBDBD"/>
<rect x="19" y="48" width="14" height="4" rx="2" fill="black"/>
<path d="M69.496 25.6C69.496 23.2827 69.892 21.1707 70.684 19.264C71.476 17.328 72.576 15.6707 73.984 14.292C75.392 12.884 77.0347 11.7987 78.912 11.036C80.8187 10.2733 82.872 9.892 85.072 9.892C88.24 9.892 91.0413 10.6547 93.476 12.18C95.94 13.676 97.788 15.832 99.02 18.648L94.048 20.1C93.4027 18.868 92.596 17.8707 91.628 17.108C90.6893 16.3453 89.6627 15.788 88.548 15.436C87.4333 15.084 86.304 14.908 85.16 14.908C83.2827 14.908 81.6107 15.3627 80.144 16.272C78.6773 17.152 77.5333 18.3987 76.712 20.012C75.92 21.6253 75.524 23.488 75.524 25.6C75.524 27.712 75.92 29.5747 76.712 31.188C77.5333 32.772 78.6773 34.0187 80.144 34.928C81.6107 35.8373 83.2827 36.292 85.16 36.292C86.3333 36.292 87.492 36.116 88.636 35.764C89.8093 35.3827 90.8947 34.752 91.892 33.872C92.8893 32.992 93.74 31.8187 94.444 30.352L99.328 31.716C98.0667 34.9133 96.1893 37.3187 93.696 38.932C91.2027 40.516 88.328 41.308 85.072 41.308C82.872 41.308 80.8187 40.9267 78.912 40.164C77.0347 39.4013 75.392 38.316 73.984 36.908C72.576 35.5 71.476 33.8427 70.684 31.936C69.892 30 69.496 27.888 69.496 25.6ZM104.029 19H109.133L109.529 21.816C110.145 21.0533 110.834 20.4373 111.597 19.968C112.389 19.4693 113.254 19.132 114.193 18.956C115.131 18.7507 116.114 18.7653 117.141 19V24.28C116.349 24.016 115.513 23.9427 114.633 24.06C113.782 24.1773 112.975 24.4853 112.213 24.984C111.479 25.4827 110.863 26.2013 110.365 27.14C109.895 28.0493 109.661 29.208 109.661 30.616V41H104.029V19ZM140.06 41H134.912L134.516 38.712C133.812 39.5333 132.946 40.1787 131.92 40.648C130.922 41.088 129.852 41.308 128.708 41.308C127.006 41.308 125.54 40.9413 124.308 40.208C123.076 39.4747 122.122 38.4187 121.448 37.04C120.773 35.632 120.436 33.9013 120.436 31.848V19H126.112V31.144C126.112 32.816 126.434 34.092 127.08 34.972C127.754 35.8227 128.781 36.248 130.16 36.248C131.509 36.248 132.55 35.808 133.284 34.928C134.046 34.048 134.428 32.772 134.428 31.1V19H140.06V41ZM161.423 22.3L160.719 22.388V9.32H166.351V41H161.247L160.895 38.272C160.191 39.0933 159.252 39.812 158.079 40.428C156.935 41.0147 155.6 41.308 154.075 41.308C152.168 41.308 150.481 40.8387 149.015 39.9C147.548 38.9613 146.404 37.656 145.583 35.984C144.761 34.2827 144.351 32.288 144.351 30C144.351 27.712 144.761 25.7173 145.583 24.016C146.404 22.3147 147.548 21.0093 149.015 20.1C150.481 19.1613 152.168 18.692 154.075 18.692C155.805 18.692 157.287 19.044 158.519 19.748C159.78 20.452 160.748 21.3027 161.423 22.3ZM150.423 30C150.423 31.848 150.892 33.344 151.831 34.488C152.769 35.6027 154.001 36.16 155.527 36.16C156.465 36.16 157.316 35.9253 158.079 35.456C158.871 34.9573 159.501 34.2533 159.971 33.344C160.469 32.4347 160.719 31.32 160.719 30C160.719 28.68 160.469 27.5653 159.971 26.656C159.501 25.7467 158.871 25.0573 158.079 24.588C157.316 24.0893 156.465 23.84 155.527 23.84C154.001 23.84 152.769 24.412 151.831 25.556C150.892 26.6707 150.423 28.152 150.423 30Z" fill="black"/>
<path d="M172.496 10.2H176.896V23.532H192.384V10.2H196.74V41H192.384V27.228H176.896V41H172.496V10.2ZM221.818 41H218.034L217.726 38.404C217.022 39.3427 216.127 40.0613 215.042 40.56C213.986 41.0587 212.798 41.308 211.478 41.308C209.776 41.308 208.295 40.956 207.034 40.252C205.772 39.5187 204.79 38.4627 204.086 37.084C203.411 35.676 203.074 33.9307 203.074 31.848V19H207.254V31.32C207.254 33.344 207.664 34.884 208.486 35.94C209.336 36.996 210.612 37.524 212.314 37.524C213.986 37.524 215.291 36.9813 216.23 35.896C217.198 34.8107 217.682 33.1973 217.682 31.056V19H221.818V41ZM228.09 19H231.874L232.138 21.552C232.842 20.6427 233.737 19.9387 234.822 19.44C235.907 18.9413 237.11 18.692 238.43 18.692C240.131 18.692 241.598 19.0587 242.83 19.792C244.091 20.496 245.059 21.552 245.734 22.96C246.438 24.368 246.79 26.128 246.79 28.24V41H242.654V28.768C242.654 26.7147 242.214 25.16 241.334 24.104C240.483 23.0187 239.237 22.476 237.594 22.476C235.893 22.476 234.573 23.0333 233.634 24.148C232.695 25.2333 232.226 26.8467 232.226 28.988V41H228.09V19ZM254.162 19V12.84H258.342V19H263.842V22.696H258.342V33.52C258.342 34.8693 258.606 35.8227 259.134 36.38C259.691 36.9373 260.381 37.26 261.202 37.348C262.053 37.4067 262.933 37.3773 263.842 37.26V40.824C262.639 41.088 261.451 41.1613 260.278 41.044C259.134 40.956 258.093 40.6333 257.154 40.076C256.245 39.5187 255.511 38.712 254.954 37.656C254.426 36.5707 254.162 35.192 254.162 33.52V22.696H250.994V19H254.162Z" fill="#A7A7A7"/>
<defs>
<clipPath id="clip0_37733_341">
<rect x="1.5" y="16" width="49" height="4" rx="2" fill="white"/>
</clipPath>
<clipPath id="clip1_37733_341">
<rect x="1.5" y="32" width="49" height="4" rx="2" fill="white"/>
</clipPath>
</defs>
</svg>
