<svg width="52" height="52" viewBox="0 0 52 52" fill="none" xmlns="http://www.w3.org/2000/svg">
<rect x="19" width="14" height="4" rx="2" fill="#444444"/>
<rect x="19" width="14" height="4" rx="2" fill="white"/>
<rect x="6" y="8" width="40" height="4" rx="2" fill="#444444"/>
<rect x="6" y="8" width="10" height="4" rx="2" fill="white"/>
<g clip-path="url(#clip0_37733_427)">
<rect x="1.5" y="16" width="49" height="4" rx="2" fill="#444444"/>
<rect x="1.5" y="16" width="10" height="4" rx="2" fill="white"/>
</g>
<rect y="24" width="52" height="4" rx="2" fill="#444444"/>
<rect y="24" width="10" height="4" rx="2" fill="white"/>
<g clip-path="url(#clip1_37733_427)">
<rect x="1.5" y="32" width="49" height="4" rx="2" fill="#444444"/>
<rect x="1.5" y="32" width="10" height="4" rx="2" fill="white"/>
</g>
<rect x="6" y="40" width="40" height="4" rx="2" fill="#444444"/>
<rect x="6" y="40" width="10" height="4" rx="2" fill="white"/>
<rect x="19" y="48" width="14" height="4" rx="2" fill="#444444"/>
<rect x="19" y="48" width="14" height="4" rx="2" fill="white"/>
<defs>
<clipPath id="clip0_37733_427">
<rect x="1.5" y="16" width="49" height="4" rx="2" fill="white"/>
</clipPath>
<clipPath id="clip1_37733_427">
<rect x="1.5" y="32" width="49" height="4" rx="2" fill="white"/>
</clipPath>
</defs>
</svg>
